<?xml version="1.0" encoding="utf-8"?>
<!-- Generator: Adobe Illustrator 24.1.2, SVG Export Plug-In . SVG Version: 6.00 Build 0)  -->
<svg version="1.1" xmlns="http://www.w3.org/2000/svg" xmlns:xlink="http://www.w3.org/1999/xlink" x="0px" y="0px"
	 viewBox="0 0 1920 1920" style="enable-background:new 0 0 1920 1920;" xml:space="preserve">
<style type="text/css">
	.st0{fill:#2F5952;}
	.st1{fill:none;stroke:#000000;stroke-width:5;stroke-miterlimit:10;}
	.st2{fill:#F6E954;}
	.st3{fill:#D72937;}
	.st4{fill:#0C6433;}
	.st5{fill:#FFFFFF;stroke:#000000;stroke-width:5;stroke-miterlimit:10;}
	.st6{fill:none;stroke:#000000;stroke-width:12;stroke-miterlimit:10;}
	.st7{fill:none;stroke:#000000;stroke-width:15;stroke-miterlimit:10;}
	.st8{fill:#FFFFFF;stroke:#000000;stroke-width:8;stroke-miterlimit:10;}
	.st9{fill:#F9DC36;}
	.st10{fill:#267BA5;}
	.st11{fill:#B72C2C;}
	.st12{fill:#385D93;}
	.st13{stroke:#000000;stroke-width:8;stroke-miterlimit:10;}
	.st14{fill:#FFFFFF;stroke:#000000;stroke-width:7;stroke-miterlimit:10;}
	.st15{fill:#385D93;stroke:#000000;stroke-width:8;stroke-miterlimit:10;}
	.st16{fill:#F6E954;stroke:#000000;stroke-width:8;stroke-miterlimit:10;}
	.st17{fill:none;stroke:#000000;stroke-width:8;stroke-miterlimit:10;}
	.st18{fill:#0C6433;stroke:#0C6534;stroke-width:8;stroke-miterlimit:10;}
	.st19{fill:#F6E954;stroke:#F6EA56;stroke-width:8;stroke-miterlimit:10;}
	.st20{fill:#D72937;stroke:#D82937;stroke-width:8;stroke-miterlimit:10;}
	.st21{fill:#385D93;stroke:#000000;stroke-width:5;stroke-miterlimit:10;}
	.st22{fill:#F2CC2F;stroke:#000000;stroke-width:5;stroke-miterlimit:10;}
	.st23{fill:#0C6433;stroke:#0C6534;stroke-width:7;stroke-miterlimit:10;}
	.st24{fill:#F6E954;stroke:#F6EA56;stroke-width:7;stroke-miterlimit:10;}
	.st25{fill:none;stroke:#000000;stroke-width:7;stroke-miterlimit:10;}
	.st26{fill:#D72937;stroke:#D82937;stroke-width:7;stroke-miterlimit:10;}
	.st27{fill:#267BA5;stroke:#277BA6;stroke-width:6;stroke-miterlimit:10;}
	.st28{fill:#267BA5;stroke:#277BA6;stroke-width:3;stroke-miterlimit:10;}
</style>
<g id="Capa_1">
	<path d="M662.45,809.51c-23.75,0-45.28-9.54-61.04-25.3c-15.76-15.76-25.3-37.29-25.3-61.04c0-23.97,9.54-45.28,25.3-61.04
		c15.76-15.76,37.29-25.3,61.04-25.3c23.08,0,44.61,8.88,60.81,24.86c4.66,4.66,4,9.77-1.33,13.98l-17.53,13.76
		c-5.1,4.22-8.88,3.55-13.98-0.67c-7.99-6.66-17.31-9.99-27.96-9.99c-12.21,0-23.3,5.11-31.29,13.1c-7.99,7.99-13.1,19.09-13.1,31.3
		c0,12.21,5.1,23.3,13.1,31.29c7.99,7.99,19.09,12.87,31.29,12.87c10.21,0,19.31-3.11,27.08-9.32c5.1-3.77,9.1-4.66,14.2-0.44
		L720.83,772c5.1,4.22,5.77,9.54,0.67,14.2C705.51,801.3,684.65,809.51,662.45,809.51z"/>
	<path d="M882.85,795.31c0,6.66-3.33,9.99-9.99,9.99h-21.97c-6.66,0-9.99-3.33-9.99-9.99v-51.05h-45.5v51.05
		c0,6.66-3.33,9.99-9.99,9.99h-21.97c-6.66,0-9.99-3.33-9.99-9.99V651.04c0-6.66,3.33-9.99,9.99-9.99h21.97
		c6.66,0,9.99,3.33,9.99,9.99v51.05h45.5v-51.05c0-6.66,3.33-9.99,9.99-9.99h21.97c6.66,0,9.99,3.33,9.99,9.99V795.31z"/>
	<path d="M1030.45,795.31c0,6.66-3.33,9.99-9.99,9.99h-95.22c-6.66,0-9.99-3.33-9.99-9.99V651.04c0-6.66,3.33-9.99,9.99-9.99h95.22
		c6.66,0,9.99,3.33,9.99,9.99v21.97c0,6.66-3.33,9.99-9.99,9.99h-63.26v20.64h46.61c6.66,0,9.99,3.33,9.99,9.99v18.87
		c0,6.66-3.33,9.99-9.99,9.99h-46.61v20.86h63.26c6.66,0,9.99,3.33,9.99,9.99V795.31z"/>
	<path d="M1216.45,825.05c-5.33,4.22-9.99,3.55-13.98-1.55l-15.54-19.98c-9.99,3.77-20.42,5.77-31.52,5.77
		c-23.97,0-45.28-9.77-61.04-25.3c-15.76-15.54-25.3-37.07-25.3-60.81c0-23.97,9.54-45.28,25.3-61.04
		c15.76-15.76,37.07-25.3,61.04-25.3c23.75,0,45.28,9.54,61.04,25.3c15.76,15.76,25.3,37.07,25.3,61.04
		c0,21.31-7.55,40.84-20.64,55.93l14.43,18.42c4,5.33,3.33,9.99-1.77,14.2L1216.45,825.05z M1149.2,755.14
		c-4.22-5.55-3.55-10.21,1.55-14.2l17.31-13.54c5.55-3.77,10.21-3.33,14.2,1.78l11.76,15.31c3.77-6.44,5.55-13.54,5.55-21.31
		c0-12.21-4.88-23.3-12.87-31.3c-7.99-7.99-19.09-13.1-31.29-13.1c-12.21,0-23.31,5.11-31.29,13.1c-7.99,7.99-13.1,19.09-13.1,31.3
		c0,12.21,5.1,23.3,13.1,31.29c7.99,7.99,19.09,12.87,31.29,12.87c1.33,0,2.44,0,3.11-0.22L1149.2,755.14z"/>
	<path d="M1419.32,728.28c-0.22,20.42-7.77,40.84-20.86,55.93c-13.32,15.09-32.18,25.08-55.27,25.08c-22.19,0-41.06-9.1-54.38-23.97
		c-13.32-14.87-21.09-35.07-21.75-57.04v-77.24c0-6.66,3.33-9.99,9.99-9.99h21.97c6.66,0,9.99,3.33,9.99,9.99v77.24
		c0,11.54,3.77,21.53,9.99,28.63c6.21,7.32,14.65,11.54,24.19,11.54c9.1,0,17.76-4.22,23.97-11.54c6.22-7.1,9.99-17.09,9.99-28.63
		v-77.24c0-6.66,3.33-9.99,9.99-9.99h22.19c6.66,0,9.99,3.33,9.99,9.99V728.28z"/>
	<path d="M1568.92,795.31c0,6.66-3.33,9.99-9.99,9.99h-95.22c-6.66,0-9.99-3.33-9.99-9.99V651.04c0-6.66,3.33-9.99,9.99-9.99h95.22
		c6.66,0,9.99,3.33,9.99,9.99v21.97c0,6.66-3.33,9.99-9.99,9.99h-63.26v20.64h46.61c6.66,0,9.99,3.33,9.99,9.99v18.87
		c0,6.66-3.33,9.99-9.99,9.99h-46.61v20.86h63.26c6.66,0,9.99,3.33,9.99,9.99V795.31z"/>
	<path d="M1684.12,641.05c5.55,0,9.54,2.66,11.54,7.99l50.6,144.71c2.44,7.1-0.44,11.54-8.21,11.54h-23.75
		c-5.77,0-9.54-2.66-11.32-8.21l-6.88-20.2h-48.83l-6.88,20.2c-2,5.55-5.77,8.21-11.54,8.21h-23.97c-7.77,0-10.65-4.44-8.21-11.54
		l50.83-144.71c2-5.33,5.77-7.99,11.32-7.99H1684.12z M1686.78,740.49l-15.31-45.5l-13.98,45.5H1686.78z"/>
	<path d="M631.16,1071.65c-6.66,0-9.99-3.33-9.99-9.99V949.35h-34.18c-6.66,0-9.99-3.33-9.99-9.99v-21.97
		c0-6.66,3.33-9.99,9.99-9.99H697.3c6.66,0,9.99,3.33,9.99,9.99v21.97c0,6.66-3.33,9.99-9.99,9.99h-34.18v112.31
		c0,6.66-3.33,9.99-9.99,9.99H631.16z"/>
	<path d="M885.96,994.63c-0.22,20.42-7.77,40.84-20.86,55.93c-13.32,15.09-32.18,25.08-55.27,25.08c-22.19,0-41.06-9.1-54.38-23.97
		c-13.32-14.87-21.09-35.07-21.75-57.04v-77.24c0-6.66,3.33-9.99,9.99-9.99h21.97c6.66,0,9.99,3.33,9.99,9.99v77.24
		c0,11.54,3.77,21.53,9.99,28.63c6.21,7.32,14.65,11.54,24.19,11.54c9.1,0,17.76-4.22,23.97-11.54c6.22-7.1,9.99-17.09,9.99-28.63
		v-77.24c0-6.66,3.33-9.99,9.99-9.99h22.19c6.66,0,9.99,3.33,9.99,9.99V994.63z"/>
	<path d="M1069.74,1000.62l29.52-85.45c2-5.33,5.77-7.99,11.54-7.99h23.75c7.32,0,10.43,4.44,7.99,11.32l-49.94,145.16
		c-2,5.33-5.99,7.99-11.54,7.99h-22.42c-5.77,0-9.54-2.66-11.54-7.99L996.94,918.5c-2.44-6.88,0.67-11.32,7.99-11.32h23.75
		c5.55,0,9.54,2.66,11.54,7.99L1069.74,1000.62z"/>
	<path d="M1240.2,1075.64c-23.97,0-45.28-9.77-61.04-25.3s-25.3-37.07-25.3-60.81c0-23.97,9.54-45.28,25.3-61.04
		c15.76-15.76,37.07-25.3,61.04-25.3c23.75,0,45.28,9.54,61.04,25.3c15.76,15.76,25.3,37.07,25.3,61.04
		c0,23.75-9.54,45.28-25.3,60.81S1263.95,1075.64,1240.2,1075.64z M1240.2,945.13c-12.21,0-23.31,5.11-31.29,13.1
		c-7.99,7.99-13.1,19.09-13.1,31.3c0,12.21,5.1,23.3,13.1,31.29c7.99,7.99,19.09,12.87,31.29,12.87c12.21,0,23.3-4.88,31.29-12.87
		c7.99-7.99,12.87-19.09,12.87-31.29c0-12.21-4.88-23.3-12.87-31.3C1263.51,950.24,1252.41,945.13,1240.2,945.13z"/>
	<path d="M1394.02,1071.65c-6.66,0-9.99-3.33-9.99-9.99V949.35h-34.18c-6.66,0-9.99-3.33-9.99-9.99v-21.97
		c0-6.66,3.33-9.99,9.99-9.99h110.31c6.66,0,9.99,3.33,9.99,9.99v21.97c0,6.66-3.33,9.99-9.99,9.99h-34.18v112.31
		c0,6.66-3.33,9.99-9.99,9.99H1394.02z"/>
	<g>
		<line class="st23" x1="256.91" y1="1079.92" x2="388.37" y2="928.13"/>
		<line class="st24" x1="65.33" y1="996.46" x2="162.76" y2="1080.39"/>
		<line class="st25" x1="77.16" y1="1082.66" x2="333.67" y2="1082.66"/>
		<line class="st24" x1="237.95" y1="797.59" x2="391.64" y2="930.97"/>
		<line class="st24" x1="235.87" y1="795.79" x2="292.29" y2="844.75"/>
		<path class="st14" d="M165.56,875.51c0,0-5.41-109.26,31.37-143.87s179.57-86.54,215.27-89.78c35.7-3.25,64.9,4.33,64.9,4.33
			v116.83c0,0-80.05,31.37-82.21,37.86c-2.16,6.49,2.16,41.11-31.37,72.48c-33.53,31.37-78.97,71.39-78.97,71.39
			s-23.8,9.74-42.19-6.49c-18.39-16.23,0.54-43.81,9.74-53.01l41.06-39.78l-57.44-49.85L165.56,875.51z"/>
		<line class="st24" x1="232.54" y1="792.79" x2="289.56" y2="842.4"/>
		<line class="st26" x1="238.39" y1="792.21" x2="60.23" y2="997.78"/>
	</g>
	<g>
		<path class="st27" d="M1512.34,996.6c-0.17,10.03,1.85,19.07,6.38,27.32c9.12,16.58,22.83,27.07,41.78,30.24
			c10.21,1.7,20.16,0.86,29.84-2.82c6.23-2.37,11.75-5.9,16.84-10.15c10.94-9.12,17.22-20.87,19.62-34.78
			c0.67-3.91,0.77-7.87,0.75-11.84c-0.05-6.56,4.4-11.62,11.13-12.41c5.67-0.67,11.51,3.2,13.05,9.01c0.88,3.31,0.76,6.72,0.5,10.07
			c-0.38,5.01-0.9,10.01-2.13,14.91c-1.76,7.05-4.22,13.81-7.68,20.22c-2.56,4.73-5.52,9.17-8.92,13.33
			c-4.53,5.55-9.71,10.4-15.53,14.57c-8.19,5.86-17.15,10.14-26.87,12.74c-5.53,1.48-11.2,2.25-16.95,2.6
			c-10.81,0.67-21.23-1.04-31.42-4.47c-9.72-3.27-18.4-8.38-26.19-15.02c-13.64-11.64-22.5-26.24-26.81-43.63
			c-2.12-8.56-2.63-17.28-2.08-26.01c0.61-9.65,3.32-18.84,7.41-27.63c4.63-9.94,10.94-18.65,18.99-26.07
			c4.78-4.41,10.02-8.21,15.71-11.38c8.71-4.85,18.01-7.99,27.84-9.49c7.43-1.13,14.89-1.12,22.37-0.25c6,0.7,11.82,2.06,17.48,4.11
			c5.5,2,10.82,4.39,15.75,7.59c7.7,4.99,7.06,16.85-1.07,21.08c-5.04,2.62-9.59,1.41-14.12-1.28c-6.6-3.9-13.78-6.12-21.39-6.95
			c-9.76-1.06-19.25,0.01-28.37,3.75c-8.94,3.67-16.52,9.21-22.72,16.64c-5.87,7.05-9.79,15.07-11.87,23.98
			C1512.71,988.7,1512.12,992.9,1512.34,996.6z"/>
		<path class="st9" d="M1689.83,917.63c-0.12,0.64-0.62,0.92-0.98,1.29c-12.43,12.44-24.86,24.87-37.3,37.3
			c-23.36,23.34-46.72,46.67-70.09,70.01c-1.71,1.7-3.53,3.3-5.16,5.07c-0.95,1.03-1.5,0.83-2.39-0.06
			c-10.77-10.83-21.58-21.62-32.39-32.42c-5.31-5.3-10.6-10.63-15.95-15.88c-1.07-1.05-1.22-1.71-0.06-2.83
			c5.4-5.21,10.73-10.5,16.04-15.8c0.78-0.78,1.19-0.78,2.03-0.02c10.31,9.32,19.75,19.51,29.65,29.24c2.11,2.07,1.68,2,3.65,0.04
			c31.15-31.16,62.31-62.32,93.44-93.51c1-1,1.56-0.99,2.57,0c5.5,5.42,10.81,11.02,16.11,16.63
			C1689.3,916.99,1689.56,917.33,1689.83,917.63z"/>
	</g>
</g>
<g id="Capa_2">
</g>
</svg>
