<?xml version="1.0" standalone="no"?>
<!DOCTYPE svg PUBLIC "-//W3C//DTD SVG 20010904//EN"
 "http://www.w3.org/TR/2001/REC-SVG-20010904/DTD/svg10.dtd">
<svg version="1.0" xmlns="http://www.w3.org/2000/svg"
 width="1920.000000pt" height="1920.000000pt" viewBox="0 0 1920.000000 1920.000000"
 preserveAspectRatio="xMidYMid meet">

<g transform="translate(0.000000,1920.000000) scale(0.100000,-0.100000)"
fill="#000000" stroke="none">
<path d="M5120 12113 c-454 -46 -730 -100 -1109 -214 -512 -156 -976 -357
-1272 -554 -152 -101 -251 -195 -308 -292 -127 -215 -211 -639 -211 -1070 l0
-142 -442 -493 c-243 -271 -475 -530 -517 -576 l-75 -83 45 -39 c24 -22 47
-39 50 -40 4 0 215 233 470 518 254 284 472 526 485 537 12 11 176 192 364
403 188 211 345 382 350 380 16 -6 388 -343 387 -350 -1 -4 -75 -88 -163 -186
-185 -204 -221 -252 -266 -347 -44 -95 -51 -206 -18 -283 27 -62 82 -115 159
-151 110 -51 298 -26 446 59 100 58 703 613 788 725 102 135 168 307 184 480
l8 79 40 23 c67 38 278 131 505 224 l215 88 3 655 2 656 -42 -2 c-24 0 -59 -3
-78 -5z m-12 -673 l-3 -541 -200 -83 c-409 -169 -526 -231 -549 -289 -8 -17
-16 -67 -20 -110 -14 -161 -70 -308 -162 -428 -46 -60 -289 -291 -568 -539
-165 -147 -241 -192 -356 -209 -105 -16 -164 1 -219 64 -26 30 -31 44 -31 85
0 57 27 136 68 197 15 22 123 147 240 277 116 129 212 239 212 244 0 7 -484
447 -561 510 l-28 22 -286 -320 c-158 -176 -290 -320 -292 -320 -8 0 6 214 23
370 41 368 125 603 264 734 182 171 596 386 1080 560 291 105 645 205 880 247
110 20 440 66 488 68 l22 1 -2 -540z"/>
<path d="M6985 11961 c-169 -45 -288 -115 -407 -239 -91 -96 -146 -186 -190
-312 -31 -91 -32 -101 -33 -250 0 -174 12 -234 70 -357 191 -406 649 -588
1069 -425 119 47 280 166 286 212 7 47 -4 62 -97 143 -161 138 -159 137 -252
77 -91 -59 -127 -71 -222 -77 -95 -6 -173 11 -245 53 -60 35 -141 125 -172
191 -24 53 -27 69 -27 173 0 110 2 119 32 181 84 170 267 268 449 239 69 -11
139 -42 207 -91 65 -47 86 -41 209 56 59 46 114 96 124 109 23 36 11 72 -39
120 -100 93 -241 167 -387 201 -93 21 -285 19 -375 -4z"/>
<path d="M11733 11961 c-171 -46 -286 -114 -405 -239 -92 -97 -150 -192 -191
-314 -26 -80 -31 -111 -35 -228 -6 -199 29 -327 134 -487 197 -298 568 -437
919 -343 78 21 80 21 95 2 8 -10 46 -58 83 -106 75 -96 103 -116 145 -100 41
16 218 155 237 187 22 37 13 71 -31 127 -20 25 -54 69 -77 98 l-40 52 42 60
c51 72 105 185 127 265 24 87 30 292 11 381 -36 167 -106 295 -231 420 -105
105 -191 159 -327 206 -86 29 -106 32 -239 35 -119 2 -158 -1 -217 -16z m344
-413 c173 -64 282 -233 271 -421 -5 -76 -30 -167 -47 -167 -4 0 -36 36 -70 81
-68 86 -98 106 -142 90 -33 -11 -200 -141 -229 -178 -31 -40 -25 -65 35 -145
l55 -73 -41 -3 c-96 -7 -236 62 -310 153 -169 210 -99 525 144 645 108 53 224
59 334 18z"/>
<path d="M8079 11914 l-24 -26 0 -740 0 -740 28 -24 c27 -23 34 -24 178 -24
146 0 151 1 174 25 l25 24 0 271 0 270 220 0 220 0 0 -270 0 -271 25 -24 c23
-24 28 -25 174 -25 144 0 151 1 178 24 l28 24 0 740 0 740 -24 26 c-24 26 -26
26 -178 26 -150 0 -155 -1 -178 -25 l-25 -24 0 -266 0 -265 -220 0 -220 0 0
265 0 266 -25 24 c-23 24 -28 25 -178 25 -152 0 -154 0 -178 -26z"/>
<path d="M9642 11920 c-11 -11 -24 -35 -27 -52 -3 -18 -5 -354 -3 -746 l3
-714 28 -24 28 -24 494 0 c348 0 501 3 519 11 14 7 30 25 36 42 13 38 13 267
0 302 -19 51 -50 55 -390 55 l-310 0 0 95 0 94 250 3 c317 4 295 -10 295 189
l0 141 -28 24 c-28 24 -29 24 -273 24 l-244 0 0 100 0 100 326 0 c193 0 333 4
344 10 29 16 40 66 40 190 0 124 -11 174 -40 190 -12 6 -213 10 -522 10 -490
0 -505 -1 -526 -20z"/>
<path d="M13031 11921 c-11 -11 -23 -35 -26 -54 -4 -18 -5 -222 -2 -453 4
-453 7 -481 63 -620 85 -214 243 -369 449 -441 73 -25 92 -27 220 -27 125 0
149 3 220 27 209 70 374 229 456 442 56 145 59 170 59 653 l0 443 -25 24 c-23
24 -28 25 -175 25 -153 0 -181 -5 -196 -37 -5 -10 -11 -220 -14 -468 l-5 -450
-28 -59 c-42 -90 -88 -140 -162 -177 -60 -29 -71 -31 -142 -27 -47 3 -92 12
-112 22 -90 47 -166 153 -190 264 -7 34 -11 199 -11 468 l0 415 -25 24 c-24
24 -28 25 -180 25 -140 0 -157 -2 -174 -19z"/>
<path d="M14829 11921 l-24 -19 -3 -729 c-1 -400 0 -738 3 -751 3 -12 14 -31
25 -42 19 -19 35 -20 524 -20 l505 0 28 24 c27 23 27 26 31 152 5 161 -7 203
-58 221 -24 8 -132 12 -342 12 l-308 1 0 95 0 95 229 0 c239 0 283 6 303 43
14 27 23 180 14 242 -5 30 -17 56 -31 71 -24 24 -25 24 -270 24 l-245 0 0 100
0 100 328 0 329 0 24 26 c23 25 24 31 24 174 0 143 -1 149 -24 174 l-24 26
-508 0 c-484 0 -508 -1 -530 -19z"/>
<path d="M16705 11918 c-21 -19 -73 -158 -281 -747 -140 -398 -254 -735 -254
-748 0 -13 9 -32 20 -43 18 -18 33 -20 184 -20 206 0 201 -3 256 155 l37 110
236 3 235 2 22 -67 c70 -212 58 -203 275 -203 142 0 157 2 175 20 11 11 20 31
20 45 0 14 -113 349 -250 743 -217 620 -255 721 -280 745 l-30 27 -170 0
c-161 0 -170 -1 -195 -22z m269 -716 c36 -108 66 -200 66 -205 0 -4 -61 -7
-136 -7 -104 0 -135 3 -131 13 3 6 31 99 63 205 32 105 62 192 66 192 3 0 36
-89 72 -198z"/>
<path d="M12618 9410 c-85 -14 -204 -56 -288 -103 -102 -57 -250 -205 -307
-307 -200 -358 -122 -789 190 -1051 123 -104 275 -168 448 -190 346 -45 721
179 855 509 47 117 59 180 59 317 -1 147 -16 224 -70 342 -79 173 -221 320
-392 406 -132 67 -346 100 -495 77z m221 -411 c124 -28 231 -115 287 -232 101
-214 15 -460 -196 -561 -164 -79 -342 -51 -475 75 -178 168 -178 440 0 608
108 102 247 142 384 110z"/>
<path d="M6400 9367 c-14 -7 -30 -28 -37 -47 -15 -43 -17 -232 -3 -282 18 -64
31 -68 237 -68 l183 0 0 -559 0 -560 24 -28 24 -28 156 0 c148 0 156 1 178 23
l23 23 3 564 2 564 191 3 c244 4 229 -9 229 198 0 82 -3 156 -6 165 -17 44
-32 45 -621 45 -429 0 -564 -3 -583 -13z"/>
<path d="M7910 9367 c-49 -25 -52 -56 -47 -512 4 -413 4 -422 29 -515 32 -117
63 -190 119 -272 120 -177 294 -282 512 -310 307 -38 614 146 739 444 69 164
71 180 76 654 4 473 2 493 -53 514 -15 6 -85 10 -156 10 -136 0 -177 -10 -195
-47 -5 -10 -11 -220 -14 -468 l-5 -450 -31 -65 c-36 -76 -96 -139 -162 -172
-64 -31 -176 -32 -243 -1 -55 25 -117 83 -153 146 -50 85 -56 145 -56 590 0
247 -4 416 -10 427 -5 10 -24 23 -41 29 -45 15 -277 14 -309 -2z"/>
<path d="M10415 9355 c-14 -13 -25 -31 -25 -39 0 -17 472 -1389 500 -1454 27
-61 59 -72 215 -72 142 0 185 12 208 57 29 55 500 1439 500 1467 0 18 -8 36
-22 48 -20 16 -42 18 -173 18 -164 0 -197 -8 -221 -58 -8 -15 -76 -208 -152
-430 -76 -221 -140 -401 -142 -398 -2 2 -66 185 -143 407 -77 222 -145 415
-152 427 -23 44 -56 52 -218 52 -147 0 -152 -1 -175 -25z"/>
<path d="M13752 9370 c-42 -17 -54 -70 -50 -218 3 -132 3 -134 31 -158 28 -23
32 -24 213 -24 l184 0 0 -559 0 -560 24 -28 24 -28 156 0 c148 0 156 1 178 23
l23 23 3 564 2 564 191 3 c244 4 229 -9 229 198 0 82 -3 156 -6 165 -17 44
-32 45 -621 44 -315 0 -568 -4 -581 -9z"/>
<path d="M15781 9370 c-342 -72 -605 -327 -687 -667 -24 -98 -22 -285 5 -385
48 -182 103 -279 231 -409 174 -175 371 -259 609 -259 400 0 733 256 843 647
31 112 32 289 2 330 -52 70 -133 92 -204 54 -58 -31 -72 -58 -81 -168 -19
-200 -80 -326 -209 -427 -141 -111 -293 -147 -465 -111 -109 23 -190 68 -270
149 -114 115 -165 236 -165 389 0 156 52 279 165 393 169 171 405 210 635 104
118 -54 174 -53 233 5 56 56 60 146 9 206 -30 37 -173 108 -267 134 -70 20
-316 29 -384 15z"/>
<path d="M3665 8489 l-740 -828 -690 -3 -690 -3 0 -45 0 -45 1185 0 1185 0 0
45 0 45 -409 5 -409 5 702 783 c579 647 700 786 690 798 -7 8 -28 27 -48 43
l-36 28 -740 -828z"/>
</g>
</svg>
